/vscmnt/brussel_pixiu_data/_data_brussel/112/vsc11236/PredSimResults/SUBJ07opt3D/expIG/worker_06.mot
version=1
nRows=10
nColumns=50
inDegrees=yes
endheader
                time	         pelvis_tilt	         pelvis_list	     pelvis_rotation	           pelvis_tx	           pelvis_ty	           pelvis_tz	       hip_flexion_r	     hip_adduction_r	      hip_rotation_r	        knee_angle_r	       ankle_angle_r	         mtp_angle_r	       hip_flexion_l	     hip_adduction_l	      hip_rotation_l	        knee_angle_l	       ankle_angle_l	         mtp_angle_l	    lumbar_extension	      lumbar_bending	     lumbar_rotation	 ercspn_r/activation	 intobl_r/activation	 extobl_r/activation	    abd_r/activation	    add_r/activation	hamstrings_r/activation	bifemsh_r/activation	glut_max_r/activation	iliopsoas_r/activation	rect_fem_r/activation	  vasti_r/activation	gastroc_r/activation	 soleus_r/activation	tib_ant_r/activation	 ercspn_l/activation	 intobl_l/activation	 extobl_l/activation	    abd_l/activation	    add_l/activation	hamstrings_l/activation	bifemsh_l/activation	glut_max_l/activation	iliopsoas_l/activation	rect_fem_l/activation	  vasti_l/activation	gastroc_l/activation	 soleus_l/activation	tib_ant_l/activation	
          1.73449008	         -3.54440163	          0.05236537	         -7.87884345	          1.90793908	          0.85391103	          0.01400328	        -13.52969057	          0.19878030	          3.53994175	         -8.02547040	          9.75958848	         24.80900113	         28.40610270	         -2.40704983	         -3.81203191	         -5.81523087	          1.51484475	          0.25932638	         -9.79459737	          2.33935317	          0.78521893	          0.07957297	          0.00999999	          0.00999999	          0.04095537	          0.00999999	          0.01000003	          0.13053728	          0.01503057	          0.13007700	          0.01000000	          0.00999999	          0.14593990	          0.29827288	          0.02023742	          0.12854441	          0.15292023	          0.00999999	          0.01257817	          0.10768113	          0.04878471	          0.06322514	          0.05234475	          0.02878870	          0.00999999	          0.00999999	          0.00999999	          0.00999999	          0.38223058	
          1.74605334	         -3.56729039	          0.02809468	         -7.92338125	          1.92260217	          0.85245885	          0.01357899	        -14.09777555	          0.09648636	          3.21817460	         -8.72312935	          8.99319807	         26.28786979	         28.16285872	         -2.19068834	         -3.53963814	         -6.98649554	          1.17886657	          0.25307052	         -9.70323836	          1.94923543	          0.99710958	          0.10599613	          0.00999999	          0.00999999	          0.03433776	          0.00999999	          0.01192731	          0.10944493	          0.01422583	          0.10905902	          0.01000002	          0.01008087	          0.12235878	          0.28493252	          0.01696744	          0.10777407	          0.12821122	          0.00999999	          0.01054578	          0.11238671	          0.04090203	          0.10552038	          0.09112715	          0.02413700	          0.00999999	          0.00999999	          0.01696744	          0.01234592	          0.38433066	
          1.75761661	         -3.58297641	          0.00352729	         -7.92461631	          1.93749054	          0.85120391	          0.01308822	        -14.59320272	          0.00128361	          2.86786761	         -9.57883105	          8.10817654	         27.74251487	         27.85409926	         -2.02426572	         -3.22268997	         -8.20070351	          0.80296823	          0.24685273	         -9.60141801	          1.54832531	          1.20928688	          0.11314531	          0.00999999	          0.00999999	          0.02878943	          0.00999999	          0.01000012	          0.09176070	          0.01192720	          0.09143715	          0.01527084	          0.00999999	          0.10258792	          0.26726074	          0.01422582	          0.12099937	          0.10820976	          0.00999999	          0.06016072	          0.11192568	          0.04731872	          0.11422659	          0.09872136	          0.02023692	          0.00999999	          0.00999999	          0.01422582	          0.01035105	          0.44620219	
          1.76917988	         -3.59356071	         -0.04007417	         -7.88102786	          1.95244557	          0.85028681	          0.01250022	        -14.95084340	         -0.06504588	          2.49576337	        -10.68044647	          7.07107439	         29.16265396	         27.53707679	         -1.88029877	         -2.96216683	         -9.38484611	          0.35239935	          0.23179036	         -9.50768285	          1.16407214	          1.41592216	          0.14078054	          0.00999999	          0.00999999	          0.02413760	          0.00999999	          0.01000006	          0.07693391	          0.00999999	          0.07666264	          0.01422587	          0.01502585	          0.08601166	          0.24586526	          0.01192720	          0.13137515	          0.09072512	          0.00999999	          0.10409900	          0.13091458	          0.04581800	          0.09576974	          0.11177524	          0.01696701	          0.00999999	          0.00999999	          0.01192720	          0.00999999	          0.47953072	
          1.78074314	         -3.59893767	         -0.10166216	         -7.79724584	          1.96735647	          0.84982713	          0.01182253	        -15.12696690	         -0.10313693	          2.10273366	        -12.08070645	          5.86391435	         30.50148007	         27.26931869	         -1.75065393	         -2.75239875	        -10.68715122	          0.06704730	          0.21513900	         -9.42879577	          0.79782730	          1.61509871	          0.17778577	          0.00999999	          0.00999999	          0.02023742	          0.01690944	          0.01000034	          0.06450285	          0.00999999	          0.06427541	          0.01192725	          0.01916525	          0.07211380	          0.22192273	          0.00999999	          0.13873960	          0.07606566	          0.00999999	          0.14642498	          0.15382740	          0.04514068	          0.08029516	          0.12988342	          0.01422547	          0.00999999	          0.00999999	          0.00999999	          0.00999999	          0.48477403	
          1.79230641	         -3.59925620	         -0.17863404	         -7.67656993	          1.98212575	          0.84993819	          0.01106648	        -15.06976724	         -0.11427758	          1.68084389	        -13.85305083	          4.50226748	         31.64799399	         27.07459437	         -1.63459593	         -2.58402402	        -12.15624696	          0.05299798	          0.19742650	         -9.36749630	          0.45038608	          1.80616301	          0.20576923	          0.00999999	          0.00999999	          0.01696744	          0.04334107	          0.01000017	          0.05408042	          0.00999999	          0.05388973	          0.01000003	          0.01606851	          0.06046158	          0.18689259	          0.00999999	          0.14536058	          0.06377489	          0.00999999	          0.17559148	          0.18471429	          0.04410310	          0.06732099	          0.14414864	          0.01192690	          0.00999999	          0.01879118	          0.00999999	          0.00999999	          0.46301395	
          1.80386968	         -3.59477502	         -0.27087358	         -7.52073800	          1.99668081	          0.85067475	          0.01024663	        -14.70143644	         -0.09787034	          1.21549264	        -16.13188618	          3.05834131	         32.40627345	         26.92295803	         -1.53013628	         -2.44630178	        -13.72939798	          0.33128893	          0.18419161	         -9.32417532	          0.12389014	          1.98713624	          0.22288992	          0.00999999	          0.00999999	          0.01422582	          0.07386125	          0.01000013	          0.04534205	          0.00999999	          0.04518217	          0.00999999	          0.01347214	          0.05069213	          0.15669429	          0.00999999	          0.15066904	          0.05347008	          0.00999999	          0.19009039	          0.21203348	          0.04505259	          0.05644319	          0.15335417	          0.00999999	          0.00999999	          0.02682479	          0.00999999	          0.00999999	          0.42097638	
          1.81543295	         -3.58544778	         -0.37727993	         -7.33209257	          2.01101339	          0.85199103	          0.00937780	        -13.96297222	         -0.06103567	          0.69683626	        -19.02016069	          1.58028471	         32.59327689	         26.74669643	         -1.43264463	         -2.32190713	        -15.27486550	          0.86304033	          0.19438982	         -9.29222407	         -0.18147855	          2.15566548	          0.22952494	          0.00999999	          0.00999999	          0.01192720	          0.10307911	          0.01000011	          0.03801563	          0.00999999	          0.03788159	          0.00999999	          0.01129530	          0.04250125	          0.13137546	          0.00999999	          0.15124273	          0.04483033	          0.00999999	          0.19421021	          0.22681215	          0.04676222	          0.04732304	          0.15900581	          0.00999999	          0.00999999	          0.03873415	          0.00999999	          0.00999999	          0.35987848	
          1.82699621	         -3.57199587	         -0.49492032	         -7.11189152	          2.02513009	          0.85380055	          0.00847212	        -12.81993106	         -0.01764431	          0.14002240	        -22.55391409	         -0.00322884	         32.16419155	         26.46981117	         -1.33524598	         -2.19151273	        -16.63695258	          1.55941066	          0.26095764	         -9.26529587	         -0.46807950	          2.30819214	          0.22919706	          0.00999999	          0.00999999	          0.00999999	          0.12371360	          0.01000010	          0.03187303	          0.00999999	          0.03176064	          0.00999999	          0.00999999	          0.03563385	          0.11014768	          0.00999999	          0.13646580	          0.03758659	          0.00999999	          0.18711160	          0.22667988	          0.05033841	          0.03967654	          0.15464458	          0.00999999	          0.00999999	          0.05570294	          0.00999999	          0.00999999	          0.30453306	
          1.83855948	         -3.55618623	         -0.62030967	         -6.86053487	          2.03901899	          0.85599694	          0.00752881	        -11.27178715	          0.01761962	         -0.42162965	        -26.66575844	         -1.86201650	         31.16366887	         26.03498796	         -1.23148484	         -2.03873146	        -17.67950901	          2.26106058	          0.38937101	         -9.24302112	         -0.73669281	          2.44263468	          0.22532122	          0.00999999	          0.00999999	          0.00999999	          0.13529276	          0.01000003	          0.02876487	          0.00999999	          0.02662872	          0.00999999	          0.00999999	          0.02987610	          0.09234990	          0.00999999	          0.11441551	          0.03151331	          0.00999999	          0.17724341	          0.21286106	          0.05910368	          0.03326556	          0.13697660	          0.00999999	          0.00999999	          0.08041838	          0.00999999	          0.00999999	          0.26770559	
